
<global>
amp_veltrack=0
ampeg_release=0.35
xf_cccurve=gain
xfin_hicc1=127
xfout_hicc1=127
xfout_locc1=127
</global>

<group>
group_label=FF

<region>
hikey=B4
hivel=127
lokey=A#4
loop_end=250442
loop_mode=loop_continuous
loop_start=81410
loop_xfade=20482
lovel=0
pitch_keycenter=A#4
sample=Flute2_sustain_FF_A#4.opus
</region>

<region>
hikey=B5
hivel=127
lokey=A#5
loop_end=257832
loop_mode=loop_continuous
loop_start=83813
loop_xfade=21086
lovel=0
pitch_keycenter=A#5
sample=Flute2_sustain_FF_A#5.opus
</region>

<region>
hikey=B6
hivel=127
lokey=A#6
loop_end=258636
loop_mode=loop_continuous
loop_start=84074
loop_xfade=21152
lovel=0
pitch_keycenter=A#6
sample=Flute2_sustain_FF_A#6.opus
</region>

<region>
hikey=C#4
hivel=127
lokey=C4
loop_end=255019
loop_mode=loop_continuous
loop_start=82898
loop_xfade=20856
lovel=0
sample=Flute2_sustain_FF_C4.opus
</region>

<region>
hikey=C#5
hivel=127
lokey=C5
loop_end=251409
loop_mode=loop_continuous
loop_start=81725
loop_xfade=20561
lovel=0
pitch_keycenter=C5
sample=Flute2_sustain_FF_C5.opus
</region>

<region>
hikey=C#6
hivel=127
lokey=C6
loop_end=256526
loop_mode=loop_continuous
loop_start=83388
loop_xfade=20979
lovel=0
pitch_keycenter=C6
sample=Flute2_sustain_FF_C6.opus
</region>

<region>
hikey=C#7
hivel=127
lokey=C7
loop_end=244924
loop_mode=loop_continuous
loop_start=79616
loop_xfade=20030
lovel=0
pitch_keycenter=C7
sample=Flute2_sustain_FF_C7.opus
</region>

<region>
hikey=D#4
hivel=127
lokey=D4
loop_end=251746
loop_mode=loop_continuous
loop_start=81834
loop_xfade=20588
lovel=0
pitch_keycenter=D4
sample=Flute2_sustain_FF_D4.opus
</region>

<region>
hikey=D#5
hivel=127
lokey=D5
loop_end=252868
loop_mode=loop_continuous
loop_start=82199
loop_xfade=20680
lovel=0
pitch_keycenter=D5
sample=Flute2_sustain_FF_D5.opus
</region>

<region>
hikey=D#6
hivel=127
lokey=D6
loop_end=261012
loop_mode=loop_continuous
loop_start=84846
loop_xfade=21346
lovel=0
pitch_keycenter=D6
sample=Flute2_sustain_FF_D6.opus
</region>

<region>
hikey=F4
hivel=127
lokey=E4
loop_end=254380
loop_mode=loop_continuous
loop_start=82690
loop_xfade=20804
lovel=0
pitch_keycenter=E4
sample=Flute2_sustain_FF_E4.opus
</region>

<region>
hikey=F5
hivel=127
lokey=E5
loop_end=253065
loop_mode=loop_continuous
loop_start=82263
loop_xfade=20696
lovel=0
pitch_keycenter=E5
sample=Flute2_sustain_FF_E5.opus
</region>

<region>
hikey=F6
hivel=127
lokey=E6
loop_end=252552
loop_mode=loop_continuous
loop_start=82096
loop_xfade=20654
lovel=0
pitch_keycenter=E6
sample=Flute2_sustain_FF_E6.opus
</region>

<region>
hikey=G4
hivel=127
lokey=F#4
loop_end=252551
loop_mode=loop_continuous
loop_start=82096
loop_xfade=20654
lovel=0
pitch_keycenter=F#4
sample=Flute2_sustain_FF_F#4.opus
</region>

<region>
hikey=G5
hivel=127
lokey=F#5
loop_end=251131
loop_mode=loop_continuous
loop_start=81634
loop_xfade=20538
lovel=0
pitch_keycenter=F#5
sample=Flute2_sustain_FF_F#5.opus
</region>

<region>
hikey=G6
hivel=127
lokey=F#6
loop_end=255329
loop_mode=loop_continuous
loop_start=82999
loop_xfade=20881
lovel=0
pitch_keycenter=F#6
sample=Flute2_sustain_FF_F#6.opus
</region>

<region>
hikey=A4
hivel=127
lokey=G#4
loop_end=250976
loop_mode=loop_continuous
loop_start=81584
loop_xfade=20525
lovel=0
pitch_keycenter=G#4
sample=Flute2_sustain_FF_G#4.opus
</region>

<region>
hikey=A5
hivel=127
lokey=G#5
loop_end=256641
loop_mode=loop_continuous
loop_start=83425
loop_xfade=20989
lovel=0
pitch_keycenter=G#5
sample=Flute2_sustain_FF_G#5.opus
</region>

<region>
hikey=A6
hivel=127
lokey=G#6
loop_end=255664
loop_mode=loop_continuous
loop_start=83108
loop_xfade=20909
lovel=0
pitch_keycenter=G#6
sample=Flute2_sustain_FF_G#6.opus
</region>
</group>